Coordinates
version=1
nRows=11
nColumns=63
inDegrees=yes

Units are S.I. units (second, meters, Newtons, ...)
If the header above contains a line with 'inDegrees', this indicates whether rotational values are in degrees (yes) or radians (no).

endheader
time	pelvis_tilt	pelvis_list	pelvis_rotation	pelvis_tx	pelvis_ty	pelvis_tz	hip_flexion_r	hip_adduction_r	hip_rotation_r	knee_angle_r	knee_angle_r_beta	ankle_angle_r	subtalar_angle_r	mtp_angle_r	hip_flexion_l	hip_adduction_l	hip_rotation_l	knee_angle_l	knee_angle_l_beta	ankle_angle_l	subtalar_angle_l	mtp_angle_l	L5_S1_Flex_Ext	L5_S1_Lat_Bending	L5_S1_axial_rotation	L4_L5_Flex_Ext	L4_L5_Lat_Bending	L4_L5_axial_rotation	L3_L4_Flex_Ext	L3_L4_Lat_Bending	L3_L4_axial_rotation	L2_L3_Flex_Ext	L2_L3_Lat_Bending	L2_L3_axial_rotation	L1_L2_Flex_Ext	L1_L2_Lat_Bending	L1_L2_axial_rotation	L1_T12_Flex_Ext	L1_T12_Lat_Bending	L1_T12_axial_rotation	Abs_r3	Abs_r2	Abs_r1	Abs_t1	Abs_t2	neck_flexion	neck_bending	neck_rotation	arm_flex_r	arm_add_r	arm_rot_r	elbow_flex_r	pro_sup_r	wrist_flex_r	wrist_dev_r	arm_flex_l	arm_add_l	arm_rot_l	elbow_flex_l	pro_sup_l	wrist_flex_l	wrist_dev_l
      2.16949153	      1.18273037	    -11.46586965	     94.39008529	      0.21361239	      0.80058941	      0.71597190	     13.68680719	     -1.30670879	    -19.85676746	     16.35430028	      0.28543639	     27.22382183	     13.16987720	      0.00000000	     16.52307723	     -2.12999113	      4.80600586	     19.34831826	      0.33769186	     21.39811807	     -1.59943495	      0.00000000	      0.11991563	      0.25577135	     -1.88308998	      0.22269531	      0.34017590	     -2.00078310	      0.19700939	      0.62188247	     -2.00078310	      0.13705157	      0.62188247	     -1.64770373	      0.11135365	      0.52156894	     -1.53001061	      0.06851979	      0.39618983	     -1.41231748	      0.85654534	      2.89333671	    -10.47318152	      0.00000000	      0.00000000	      9.61738790	     -3.89933648	     11.74678385	     11.91110385	      6.61701814	     70.55465247	    113.67884193	     80.31856555	     -5.61903589	     30.61288312	     14.16692659	      2.99590839	     74.77759839	    111.79293576	     77.81469580	    -14.91416215	     20.48940167
      2.18644068	      1.20494183	    -11.45654011	     94.39256830	      0.21358823	      0.80070016	      0.71604930	     13.73409492	     -1.26967055	    -19.63572046	     16.38797960	      0.28602420	     27.26217212	     12.93588496	      0.00000000	     16.49903878	     -2.20874464	      4.53702488	     19.39266540	      0.33846586	     21.37344966	     -1.27196715	      0.00000000	      0.12251781	      0.25386647	     -1.88829076	      0.22752783	      0.33764241	     -2.00630893	      0.20128451	      0.61725094	     -2.00630893	      0.14002561	      0.61725094	     -1.65225441	      0.11377004	      0.51768451	     -1.53423624	      0.07000668	      0.39323916	     -1.41621807	      0.87513248	      2.87178829	    -10.50210672	      0.00000000	      0.00000000	     10.01817350	     -4.02312848	     11.65898732	     13.03948779	      6.17373429	     72.20524709	    112.24250583	     77.42423494	     -6.70136307	     30.24449994	     14.97904317	      2.90732648	     75.36235898	    110.80836570	     69.80634282	    -13.90545929	     18.16804150
      2.20338983	      1.13757795	    -11.39419528	     94.43747813	      0.21371001	      0.80092679	      0.71632963	     13.77692653	     -1.34099272	    -19.41879175	     16.53153501	      0.28852972	     27.40298703	     12.75003789	      0.00000000	     16.44308667	     -2.19581130	      4.31009311	     19.44228002	      0.33933180	     21.33959075	     -0.84444432	      0.00000000	      0.10746091	      0.24504836	     -1.95824167	      0.19956565	      0.32591433	     -2.08063178	      0.17654752	      0.59581059	     -2.08063178	      0.12281707	      0.59581059	     -1.71346146	      0.09978820	      0.49970263	     -1.59107136	      0.06140316	      0.37957992	     -1.46868126	      0.76758250	      2.77203611	    -10.89115272	      0.00000000	      0.00000000	     10.72406581	     -4.33528108	     12.38838583	     15.29345716	      5.87392091	     74.69971099	    110.37711296	     76.09004141	     -7.25018491	     28.77988648	     15.49400758	      2.64666166	     75.25252932	    109.81253899	     63.50152202	    -11.47472415	     17.35285931
      2.22033898	      1.07364736	    -11.35975790	     94.52743443	      0.21405442	      0.80120391	      0.71664735	     13.81456703	     -1.39483243	    -19.30722828	     16.61360252	      0.28996206	     27.47860349	     12.59316628	      0.00000000	     16.45187976	     -2.19971912	      4.04838498	     19.52821009	      0.34083156	     21.25066952	     -0.33722068	      0.00000000	      0.10084316	      0.22039169	     -2.00290088	      0.18727583	      0.29312095	     -2.12808218	      0.16567523	      0.53586036	     -2.12808218	      0.11525365	      0.53586036	     -1.75253827	      0.09364296	      0.44942274	     -1.62735696	      0.05762178	      0.34138673	     -1.50217566	      0.72031261	      2.49311490	    -11.13953380	      0.00000000	      0.00000000	     11.14381317	     -4.33665570	     12.16309572	     18.04767258	      5.76438350	     77.24610478	    108.86710857	     74.88425174	     -7.90730046	     27.60959601	     15.87979807	      2.37526533	     75.10835228	    108.61064290	     59.21378743	     -8.98060678	     17.14771472
      2.23728814	      1.00670837	    -11.43772198	     94.67243707	      0.21430899	      0.80151916	      0.71686816	     13.88615689	     -1.44578910	    -19.25498669	     16.56133184	      0.28904977	     27.39965800	     12.34885170	      0.00000000	     16.54248191	     -2.22658468	      3.53930526	     19.51858357	      0.34066355	     21.11198823	      0.63247290	      0.00000000	      0.11431208	      0.19906542	     -2.02793277	      0.21228896	      0.26475701	     -2.15467857	      0.18780332	      0.48400767	     -2.15467857	      0.13064728	      0.48400767	     -1.77444118	      0.10615020	      0.40593421	     -1.64769538	      0.06531792	      0.30835234	     -1.52094958	      0.81651975	      2.25186789	    -11.27875371	      0.00000000	      0.00000000	     11.25030964	     -4.26622113	     12.21072331	     20.80062003	      5.81582633	     79.51713187	    107.91616022	     72.98418349	     -9.53032243	     26.08125758	     16.12697002	      2.14986961	     74.97122614	    107.38567804	     56.13908712	     -5.59713921	     17.72416803
      2.25423729	      0.88843725	    -11.43542096	     94.70897624	      0.21472555	      0.80184350	      0.71706743	     13.93797587	     -1.53754866	    -19.07689176	     16.66125588	      0.29079377	     27.33290067	     11.98436600	      0.00000000	     16.51924411	     -2.23888981	      2.94486361	     19.48966187	      0.34015877	     21.05164102	      1.55892738	      0.00000000	      0.10934525	      0.16870416	     -2.04506642	      0.20306506	      0.22437653	     -2.17288307	      0.17964331	      0.41018729	     -2.17288307	      0.12497068	      0.41018729	     -1.78943312	      0.10153800	      0.34402152	     -1.66161647	      0.06247987	      0.26132274	     -1.53379982	      0.78104217	      1.90841515	    -11.37404592	      0.00000000	      0.00000000	     11.36636460	     -3.95250533	     12.00587382	     23.13176823	      6.01285255	     80.78468304	    108.10376816	     72.03305891	    -10.76244226	     25.68689127	     15.84700657	      1.87489807	     74.54956397	    106.73388528	     56.61210773	     -4.16326118	     18.60795478
      2.27118644	      0.82642477	    -11.46303060	     94.76079222	      0.21484943	      0.80218743	      0.71696127	     13.91949976	     -1.60080423	    -19.17276033	     16.62462265	      0.29015440	     27.18568731	     11.93857232	      0.00000000	     16.51067096	     -2.18862156	      2.93068074	     19.45954718	      0.33963317	     20.91765764	      1.66151615	      0.00000000	      0.11342814	      0.15607961	     -2.01934899	      0.21064740	      0.20758588	     -2.14555831	      0.18635109	      0.37949196	     -2.14555831	      0.12963702	      0.37949196	     -1.76693037	      0.10532937	      0.31827754	     -1.64072106	      0.06481284	      0.24176732	     -1.51451175	      0.81020587	      1.76560376	    -11.23101330	      0.00000000	      0.00000000	     11.30237395	     -3.91991233	     12.07265237	     23.75177152	      5.97237376	     80.24616595	    109.18498543	     71.96023458	    -10.92654003	     25.62020716	     15.55131564	      1.58199996	     74.32240779	    106.59440334	     56.82697512	     -4.11049287	     18.64325533
      2.28813559	      0.81666694	    -11.46216808	     94.60021205	      0.21489401	      0.80246004	      0.71657698	     13.87861718	     -1.60877166	    -19.26121961	     16.62165778	      0.29010266	     27.00979036	     12.09143446	      0.00000000	     16.40086922	     -2.28852247	      2.42548179	     19.36890286	      0.33805113	     21.01513069	      2.27562403	      0.00000000	      0.11520223	      0.14484528	     -1.96288516	      0.21394206	      0.19264422	     -2.08556548	      0.18926575	      0.35217681	     -2.08556548	      0.13166463	      0.35217681	     -1.71752451	      0.10697679	      0.29536849	     -1.59484419	      0.06582655	      0.22436533	     -1.47216387	      0.82287802	      1.63851874	    -10.91697838	      0.00000000	      0.00000000	     11.00307490	     -3.31805827	     11.39072444	     22.77709186	      5.80193299	     79.02367518	    111.45754868	     70.02318538	    -14.04930108	     26.68687589	     14.61586885	      1.41000416	     72.95359425	    106.89554882	     60.76325449	     -3.46426257	     19.40376704
      2.30508475	      0.91415715	    -11.55499569	     94.44887273	      0.21462937	      0.80259136	      0.71598127	     13.87088335	     -1.50254388	    -19.29360514	     16.50605968	      0.28808509	     26.73005344	     12.15890356	      0.00000000	     16.35998579	     -2.40871320	      2.26491852	     19.24520129	      0.33589213	     21.07379986	      2.41545404	      0.00000000	      0.13760129	      0.16949560	     -1.85392845	      0.25553935	      0.22542914	     -1.96979897	      0.22606515	      0.41211159	     -1.96979897	      0.15726451	      0.41211159	     -1.62218739	      0.12777655	      0.34563542	     -1.50631686	      0.07862538	      0.26254868	     -1.39044633	      0.98287223	      1.91736809	    -10.31099384	      0.00000000	      0.00000000	     10.87081505	     -3.75077694	     11.58604050	     19.50717186	      5.57241152	     76.56526296	    113.28781202	     67.32723636	    -15.42611115	     26.58681462	     13.98997491	      1.32734076	     72.01617599	    107.72314159	     62.95876553	     -4.18312044	     19.25808763
      2.32203390	      1.00115023	    -11.49607886	     94.01523689	      0.21426418	      0.80254890	      0.71550613	     13.82225676	     -1.39292869	    -19.11789231	     16.56331729	      0.28908442	     26.62378727	     12.31562381	      0.00000000	     16.15220416	     -2.52162285	      2.21518526	     19.23007023	      0.33562804	     21.21669405	      2.16229166	      0.00000000	      0.12704665	      0.20391387	     -1.75282237	      0.23593834	      0.27120544	     -1.86237376	      0.20872495	      0.49579617	     -1.86237376	      0.14520162	      0.49579617	     -1.53371957	      0.11797552	      0.41582116	     -1.42416817	      0.07259446	      0.31586258	     -1.31461677	      0.90748154	      2.30671444	     -9.74867216	      0.00000000	      0.00000000	     11.34221606	     -4.38298102	     12.14489911	     15.79354446	      5.39734305	     74.62265637	    114.57295004	     59.25499916	    -16.38174168	     25.26644522	     13.30589909	      1.31085898	     70.99390455	    108.96247729	     66.32073386	     -6.22095005	     18.45918700
      2.33898305	      1.09367683	    -11.27852348	     93.93078180	      0.21369499	      0.80253100	      0.71520763	     13.62412826	     -1.32928880	    -18.99554839	     16.67832364	      0.29109166	     26.63206804	     12.39163162	      0.00000000	     15.91336032	     -2.59452433	      2.32092948	     19.38434076	      0.33832057	     21.26591634	      2.10574083	      0.00000000	      0.09602911	      0.23019298	     -1.76178379	      0.17833566	      0.30615666	     -1.87189527	      0.15776623	      0.55969121	     -1.87189527	      0.10975167	      0.55969121	     -1.54156081	      0.08917263	      0.46940953	     -1.43144933	      0.05487103	      0.35656893	     -1.32133784	      0.68592634	      2.60398904	     -9.79851289	      0.00000000	      0.00000000	     11.72925854	     -4.68252791	     12.50844898	     12.52813924	      5.29510985	     73.43191940	    115.10813464	     58.86318179	    -16.60438192	     24.61720588	     12.82319519	      1.38486194	     69.84392087	    109.89713643	     66.43376333	     -6.49797208	     18.01829101
